<mxfile host="app.diagrams.net" modified="2022-03-14T09:08:19.039Z" agent="5.0 (Windows NT 10.0; Win64; x64) AppleWebKit/537.36 (KHTML, like Gecko) Chrome/99.0.4844.51 Safari/537.36" etag="kdA4CZX0LXXb0yMuxH-K" version="17.1.2" type="github">
  <diagram id="IXUXQ47109v5t7RaDtWv" name="Page-1">
    <mxGraphModel dx="569" dy="318" grid="1" gridSize="10" guides="1" tooltips="1" connect="1" arrows="1" fold="1" page="1" pageScale="1" pageWidth="827" pageHeight="1169" math="0" shadow="0">
      <root>
        <mxCell id="0" />
        <mxCell id="1" parent="0" />
        <mxCell id="aahQz9y34NVaybQY-kEW-4" style="edgeStyle=orthogonalEdgeStyle;rounded=0;orthogonalLoop=1;jettySize=auto;html=1;exitX=1;exitY=0.25;exitDx=0;exitDy=0;entryX=0;entryY=0.25;entryDx=0;entryDy=0;fontSize=14;" edge="1" parent="1" source="aahQz9y34NVaybQY-kEW-1" target="aahQz9y34NVaybQY-kEW-3">
          <mxGeometry relative="1" as="geometry" />
        </mxCell>
        <mxCell id="aahQz9y34NVaybQY-kEW-1" value="中控" style="rounded=0;whiteSpace=wrap;html=1;fontSize=14;" vertex="1" parent="1">
          <mxGeometry x="40" y="200" width="120" height="60" as="geometry" />
        </mxCell>
        <mxCell id="aahQz9y34NVaybQY-kEW-2" value="&lt;font style=&quot;font-size: 18px&quot;&gt;出库场景现有流程&lt;/font&gt;" style="text;html=1;strokeColor=none;fillColor=none;align=center;verticalAlign=middle;whiteSpace=wrap;rounded=0;" vertex="1" parent="1">
          <mxGeometry x="5" y="110" width="170" height="30" as="geometry" />
        </mxCell>
        <mxCell id="aahQz9y34NVaybQY-kEW-7" style="edgeStyle=orthogonalEdgeStyle;rounded=0;orthogonalLoop=1;jettySize=auto;html=1;exitX=0;exitY=0.75;exitDx=0;exitDy=0;entryX=1;entryY=0.75;entryDx=0;entryDy=0;fontSize=14;" edge="1" parent="1" source="aahQz9y34NVaybQY-kEW-3" target="aahQz9y34NVaybQY-kEW-1">
          <mxGeometry relative="1" as="geometry" />
        </mxCell>
        <mxCell id="aahQz9y34NVaybQY-kEW-3" value="RCS" style="rounded=0;whiteSpace=wrap;html=1;fontSize=14;" vertex="1" parent="1">
          <mxGeometry x="280" y="200" width="120" height="60" as="geometry" />
        </mxCell>
        <mxCell id="aahQz9y34NVaybQY-kEW-5" value="维护集货位信息" style="text;html=1;strokeColor=none;fillColor=none;align=center;verticalAlign=middle;whiteSpace=wrap;rounded=0;fontSize=14;" vertex="1" parent="1">
          <mxGeometry x="70" y="280" width="60" height="30" as="geometry" />
        </mxCell>
        <mxCell id="aahQz9y34NVaybQY-kEW-6" value="根据空闲集货位个数下发出库任务（有几个空闲集货位下发多少任务）" style="text;html=1;strokeColor=none;fillColor=none;align=center;verticalAlign=middle;whiteSpace=wrap;rounded=0;fontSize=14;" vertex="1" parent="1">
          <mxGeometry x="114" y="150" width="230" height="30" as="geometry" />
        </mxCell>
        <mxCell id="aahQz9y34NVaybQY-kEW-8" value="回调告知中控任务执行情况" style="text;html=1;strokeColor=none;fillColor=none;align=center;verticalAlign=middle;whiteSpace=wrap;rounded=0;fontSize=14;" vertex="1" parent="1">
          <mxGeometry x="150" y="270" width="140" height="30" as="geometry" />
        </mxCell>
        <mxCell id="aahQz9y34NVaybQY-kEW-9" value="手动释放集货位" style="text;html=1;strokeColor=none;fillColor=none;align=center;verticalAlign=middle;whiteSpace=wrap;rounded=0;fontSize=14;" vertex="1" parent="1">
          <mxGeometry x="150" y="310" width="140" height="30" as="geometry" />
        </mxCell>
        <mxCell id="aahQz9y34NVaybQY-kEW-10" style="edgeStyle=orthogonalEdgeStyle;rounded=0;orthogonalLoop=1;jettySize=auto;html=1;exitX=1;exitY=0.25;exitDx=0;exitDy=0;entryX=0;entryY=0.25;entryDx=0;entryDy=0;fontSize=14;" edge="1" parent="1" source="aahQz9y34NVaybQY-kEW-11" target="aahQz9y34NVaybQY-kEW-14">
          <mxGeometry relative="1" as="geometry" />
        </mxCell>
        <mxCell id="aahQz9y34NVaybQY-kEW-11" value="中控" style="rounded=0;whiteSpace=wrap;html=1;fontSize=14;" vertex="1" parent="1">
          <mxGeometry x="55" y="450" width="120" height="60" as="geometry" />
        </mxCell>
        <mxCell id="aahQz9y34NVaybQY-kEW-12" value="&lt;font style=&quot;font-size: 18px&quot;&gt;方案1&lt;/font&gt;" style="text;html=1;strokeColor=none;fillColor=none;align=center;verticalAlign=middle;whiteSpace=wrap;rounded=0;" vertex="1" parent="1">
          <mxGeometry x="25" y="380" width="170" height="30" as="geometry" />
        </mxCell>
        <mxCell id="aahQz9y34NVaybQY-kEW-13" style="edgeStyle=orthogonalEdgeStyle;rounded=0;orthogonalLoop=1;jettySize=auto;html=1;exitX=0;exitY=0.75;exitDx=0;exitDy=0;entryX=1;entryY=0.75;entryDx=0;entryDy=0;fontSize=14;" edge="1" parent="1" source="aahQz9y34NVaybQY-kEW-14" target="aahQz9y34NVaybQY-kEW-11">
          <mxGeometry relative="1" as="geometry" />
        </mxCell>
        <mxCell id="aahQz9y34NVaybQY-kEW-14" value="RCS" style="rounded=0;whiteSpace=wrap;html=1;fontSize=14;" vertex="1" parent="1">
          <mxGeometry x="295" y="450" width="120" height="60" as="geometry" />
        </mxCell>
        <mxCell id="aahQz9y34NVaybQY-kEW-15" value="维护集货位信息" style="text;html=1;strokeColor=none;fillColor=none;align=center;verticalAlign=middle;whiteSpace=wrap;rounded=0;fontSize=14;" vertex="1" parent="1">
          <mxGeometry x="85" y="530" width="60" height="30" as="geometry" />
        </mxCell>
        <mxCell id="aahQz9y34NVaybQY-kEW-16" value="直接下发任务" style="text;html=1;strokeColor=none;fillColor=none;align=center;verticalAlign=middle;whiteSpace=wrap;rounded=0;fontSize=14;" vertex="1" parent="1">
          <mxGeometry x="165" y="410" width="140" height="30" as="geometry" />
        </mxCell>
        <mxCell id="aahQz9y34NVaybQY-kEW-17" value="根据集货位状态、类型、优先级编排任务并执行" style="text;html=1;strokeColor=none;fillColor=none;align=center;verticalAlign=middle;whiteSpace=wrap;rounded=0;fontSize=14;" vertex="1" parent="1">
          <mxGeometry x="280" y="390" width="159" height="60" as="geometry" />
        </mxCell>
        <mxCell id="aahQz9y34NVaybQY-kEW-18" value="手动释放集货位" style="text;html=1;strokeColor=none;fillColor=none;align=center;verticalAlign=middle;whiteSpace=wrap;rounded=0;fontSize=14;" vertex="1" parent="1">
          <mxGeometry x="165" y="530" width="140" height="30" as="geometry" />
        </mxCell>
        <mxCell id="aahQz9y34NVaybQY-kEW-19" value="维护集货位信息&lt;br&gt;（EDI同步）" style="text;html=1;strokeColor=none;fillColor=none;align=center;verticalAlign=middle;whiteSpace=wrap;rounded=0;fontSize=14;" vertex="1" parent="1">
          <mxGeometry x="430" y="465" width="110" height="30" as="geometry" />
        </mxCell>
        <mxCell id="aahQz9y34NVaybQY-kEW-20" style="edgeStyle=orthogonalEdgeStyle;rounded=0;orthogonalLoop=1;jettySize=auto;html=1;exitX=1;exitY=0.25;exitDx=0;exitDy=0;entryX=0;entryY=0.25;entryDx=0;entryDy=0;fontSize=14;" edge="1" parent="1" source="aahQz9y34NVaybQY-kEW-21" target="aahQz9y34NVaybQY-kEW-24">
          <mxGeometry relative="1" as="geometry" />
        </mxCell>
        <mxCell id="aahQz9y34NVaybQY-kEW-21" value="中控" style="rounded=0;whiteSpace=wrap;html=1;fontSize=14;" vertex="1" parent="1">
          <mxGeometry x="49" y="700" width="120" height="60" as="geometry" />
        </mxCell>
        <mxCell id="aahQz9y34NVaybQY-kEW-22" value="&lt;font style=&quot;font-size: 18px&quot;&gt;方案2&lt;/font&gt;" style="text;html=1;strokeColor=none;fillColor=none;align=center;verticalAlign=middle;whiteSpace=wrap;rounded=0;" vertex="1" parent="1">
          <mxGeometry x="19" y="630" width="170" height="30" as="geometry" />
        </mxCell>
        <mxCell id="aahQz9y34NVaybQY-kEW-23" style="edgeStyle=orthogonalEdgeStyle;rounded=0;orthogonalLoop=1;jettySize=auto;html=1;exitX=0;exitY=0.75;exitDx=0;exitDy=0;entryX=1;entryY=0.75;entryDx=0;entryDy=0;fontSize=14;" edge="1" parent="1" source="aahQz9y34NVaybQY-kEW-24" target="aahQz9y34NVaybQY-kEW-21">
          <mxGeometry relative="1" as="geometry" />
        </mxCell>
        <mxCell id="aahQz9y34NVaybQY-kEW-24" value="RCS" style="rounded=0;whiteSpace=wrap;html=1;fontSize=14;" vertex="1" parent="1">
          <mxGeometry x="289" y="700" width="120" height="60" as="geometry" />
        </mxCell>
        <mxCell id="aahQz9y34NVaybQY-kEW-25" value="维护集货位信息" style="text;html=1;strokeColor=none;fillColor=none;align=center;verticalAlign=middle;whiteSpace=wrap;rounded=0;fontSize=14;" vertex="1" parent="1">
          <mxGeometry x="79" y="780" width="60" height="30" as="geometry" />
        </mxCell>
        <mxCell id="aahQz9y34NVaybQY-kEW-26" value="下发任务" style="text;html=1;strokeColor=none;fillColor=none;align=center;verticalAlign=middle;whiteSpace=wrap;rounded=0;fontSize=14;" vertex="1" parent="1">
          <mxGeometry x="159" y="660" width="140" height="30" as="geometry" />
        </mxCell>
        <mxCell id="aahQz9y34NVaybQY-kEW-27" value="回调告知中控任务执行情况" style="text;html=1;strokeColor=none;fillColor=none;align=center;verticalAlign=middle;whiteSpace=wrap;rounded=0;fontSize=14;" vertex="1" parent="1">
          <mxGeometry x="159" y="770" width="140" height="30" as="geometry" />
        </mxCell>
        <mxCell id="aahQz9y34NVaybQY-kEW-28" value="手动释放集货位" style="text;html=1;strokeColor=none;fillColor=none;align=center;verticalAlign=middle;whiteSpace=wrap;rounded=0;fontSize=14;" vertex="1" parent="1">
          <mxGeometry x="159" y="810" width="140" height="30" as="geometry" />
        </mxCell>
        <mxCell id="aahQz9y34NVaybQY-kEW-29" value="维护集货位信息&lt;br&gt;（EDI同步）" style="text;html=1;strokeColor=none;fillColor=none;align=center;verticalAlign=middle;whiteSpace=wrap;rounded=0;fontSize=14;" vertex="1" parent="1">
          <mxGeometry x="304" y="780" width="110" height="30" as="geometry" />
        </mxCell>
      </root>
    </mxGraphModel>
  </diagram>
</mxfile>
